<?xml version="1.0" encoding="UTF-8"?>
<svg xmlns="http://www.w3.org/2000/svg" xmlns:xlink="http://www.w3.org/1999/xlink" version="1.2" >
<font id="Nassim Book">
<font-face  font-family="Nassim" units-per-em="2048" ascent="1331" descent="-717" font-style="normal" font-weight="400" font-stretch="normal" cap-height="1536" x-height="1024" underline-position="-71" underline-thickness="102" />
<missing-glyph  horiz-adv-x="500" d="" />
<glyph glyph-name="null" d="" />
<glyph glyph-name="nonmarkingreturn" unicode="&#xd;" horiz-adv-x="413" d="" />
<glyph glyph-name="space" unicode="&#x20;" horiz-adv-x="389" d="" />
<glyph glyph-name="exclam" unicode="&#x21;" horiz-adv-x="464" d="M250 319 L233 319 L150 1128 L356 1161 L297 397 Q294 359 283 336 Q273 319 250 319 Z M158 90 Q158 195 262 195 Q366 194 365 90 Q365 -14 262 -14 Q206 -14 182 12 Q158 38 158 90 Z " />
<glyph glyph-name="quotedbl" unicode="&#x22;" horiz-adv-x="585" d="M80 1169 Q123 1206 161.5 1206 Q200 1206 217 1196 Q234 1191 256 1169 L195 807 L141 807 L80 1169 Z M330 1169 Q374 1206 412 1206 Q450 1206 467 1196 Q484 1191 506 1169 L444 807 L391 807 L330 1169 Z " />
<glyph glyph-name="numbersign" unicode="&#x23;" horiz-adv-x="999" d="M381 360 L573 360 L623 559 L430 559 L381 360 Z M217 662 L369 662 L434 928 L520 928 L455 662 L647 662 L713 928 L799 928 L733 662 L887 662 L862 559 L709 559 L659 360 L809 360 L782 258 L635 258 L563 -29 L477 -29 L549 258 L356 258 L287 -29 L201 -29 L270 258 L113 258 L137 360 L297 360 L344 559 L193 559 L217 662 Z " />
<glyph glyph-name="dollar" unicode="&#x24;" horiz-adv-x="942" d="M582 831 Q548 842 491 842 Q434 842 383 808 Q332 774 332 717 Q332 661 367 631 Q421 577 565 520 Q708 457 764 375 Q799 326 799 240 Q799 154 735 84 Q671 14 561 -4 L561 -150 L442 -150 L442 -8 Q289 1 139 82 L199 268 L279 268 L293 150 Q374 76 515 76 Q588 76 628 114 Q668 152 668 208 Q668 264 634 298 Q600 332 544 359 Q488 386 442 406 Q395 426 322 467 Q267 506 234 554 Q201 602 201 686 Q201 772 272 840 Q342 913 467 928 L467 1075 L586 1075 L586 932 Q615 931 696 913 Q773 885 803 872 L756 711 L680 711 L653 805 Q613 826 582 831 Z " />
<glyph glyph-name="percent" unicode="&#x25;" horiz-adv-x="1380" d="M266 686 Q266 485 366 485 Q466 485 467 686 Q467 790 442 838 Q420 885 366 885 Q312 885 291 838 Q266 790 266 686 Z M367 942 Q600 942 600 686 Q600 546 534 487 Q468 428 366 428 Q265 428 197 487 Q133 548 133 685 Q133 822 199 885 Q265 942 367 942 Z M1049 973 L1122 911 L342 -41 L268 20 L1049 973 Z M913 244 Q912 43 1014 43 Q1116 43 1116 244 Q1116 348 1092 395 Q1068 442 1014 442 Q960 442 938 395 Q913 347 913 244 Z M1017 502 Q1247 502 1247 244 Q1247 -14 1014 -14 Q912 -14 846 46 Q780 106 780 244 Q780 382 846 442 Q912 502 1017 502 Z " />
<glyph glyph-name="ampersand" unicode="&#x26;" horiz-adv-x="1112" d="M672 844 Q672 917 631 958 Q594 1001 530 1001 Q466 1000 432 960 Q398 920 397 884 Q396 848 402 817 Q408 787 420 763 Q456 688 518 606 Q672 715 672 844 Z M299 283 Q300 194 350 145 Q400 96 467 96 Q534 96 579 112 Q624 128 674 162 L422 516 Q299 428 299 283 Z M158 227 Q158 443 389 557 Q268 717 268 820 Q268 923 346 1008 Q430 1092 552 1092 Q658 1092 741 1026 Q779 988 791 954 Q809 917 809 872 Q809 785 741 705 Q667 624 551 565 L764 264 Q808 373 801 551 L918 612 L932 600 Q927 511 899 425 Q872 340 854 302 Q836 264 803 215 Q856 156 922 120 Q988 84 1100 76 L1081 10 Q1044 0 1018 -7 Q992 -14 944 -14 Q812 -14 717 109 Q594 -14 437 -14 Q297 -14 229 61 Q158 124 158 227 Z " />
<glyph glyph-name="quotesingle" unicode="&#x27;" horiz-adv-x="335" d="M80 1169 Q123 1206 161.5 1206 Q200 1206 217 1196 Q234 1191 256 1169 L195 807 L141 807 L80 1169 Z " />
<glyph glyph-name="parenleft" unicode="&#x28;" horiz-adv-x="489" d="M299 20 Q317 -49 365 -139 Q413 -213 459 -262 L424 -342 Q354 -282 274 -188 Q206 -94 164 4 Q80 197 80 479 Q80 762 167 956 Q254 1150 424 1290 L459 1233 Q413 1182 365 1104 Q320 1019 299 940 Q244 771 244 475 Q244 179 299 20 Z " />
<glyph glyph-name="parenright" unicode="&#x29;" horiz-adv-x="489" d="M193 940 Q158 1048 123 1104 Q88 1169 31 1233 L66 1290 Q230 1154 320 958 Q410 762 410 479 Q410 196 325 1 Q240 -193 66 -342 L31 -262 Q88 -201 123 -139 Q161 -77 193 20 Q246 206 246 473 Q246 740 193 940 Z " />
<glyph glyph-name="asterisk" unicode="&#x2a;" horiz-adv-x="804" d="M546 637 Q471 637 401 899 L285 633 Q241 633 205 653 Q172 676 172 711 Q172 782 379 918 L88 944 Q80 963 80 1000 Q80 1037 101 1058 Q122 1079 152 1079 Q212 1079 387 942 L326 1227 Q367 1257 406 1257 Q477 1257 477 1178 Q477 1099 416 942 L668 1090 Q725 1054 725 1001 Q725 949 672 931 Q619 913 498 913 L461 913 Q436 913 426 915 L641 723 Q634 691 608 664 Q582 637 546 637 Z " />
<glyph glyph-name="plus" unicode="&#x2b;" horiz-adv-x="942" d="M127 508 L414 508 L414 809 L530 809 L530 508 L817 508 L817 397 L530 397 L530 96 L414 96 L414 397 L127 397 L127 508 Z " />
<glyph glyph-name="comma" unicode="&#x2c;" horiz-adv-x="522" d="M369 25 Q369 -135 172 -281 L129 -238 Q226 -133 236 -39 L104 57 L205 223 Q283 196 324 143 Q369 95 369 25 Z " />
<glyph glyph-name="hyphen" unicode="&#x2d;" horiz-adv-x="645" d="M580 449 Q580 360 444 360 L74 360 L74 401 Q74 453 111 471 Q150 494 203 494 L580 494 L580 449 Z " />
<glyph glyph-name="period" unicode="&#x2e;" horiz-adv-x="571" d="M397 102 Q398 -10 286 -10 Q174 -10 174 102 Q174 214 286 213 Q398 214 397 102 Z " />
<glyph glyph-name="slash" unicode="&#x2f;" horiz-adv-x="595" d="M487 1247 L596 1204 L106 -180 L0 -141 L487 1247 Z " />
<glyph glyph-name="zero" unicode="0" horiz-adv-x="999" d="M330 170 Q396 76 500.5 76 Q605 76 670 170 Q735 264 735 466 Q735 668 670 760 Q605 852 500.5 852 Q396 852 330 759 Q264 666 264 466 Q264 266 330 170 Z M213 815 Q260 872 334 907 Q408 942 500 942 Q592 942 666 908 Q740 874 786 815 Q899 690 899 464 Q899 238 786 113 Q683 -14 499.5 -14 Q316 -14 213 113 Q100 239 100 464 Q100 690 213 815 Z " />
<glyph glyph-name="one" unicode="1" horiz-adv-x="720" d="M346 184 L346 776 L344 778 L106 641 L59 725 L449 950 L500 922 L500 90 L670 61 L659 0 L162 0 L176 61 Q282 77 311 100 Q346 122 346 184 Z " />
<glyph glyph-name="two" unicode="2" horiz-adv-x="847" d="M436 942 Q498 942 545 922 Q592 906 634 870 Q718 796 719 694 Q719 593 672 524 Q645 478 602 438 Q564 398 489 336 L190 92 L193 88 L774 168 L778 160 L735 0 L70 0 L80 90 L309 319 Q351 361 434 449 Q475 496 508 541 Q539 591 547 619 Q555 646 555 694 Q555 742 522 786 Q489 830 436 852 Q423 849 383 831 Q261 750 207 682 L205 682 L90 793 L90 795 Q237 942 436 942 Z " />
<glyph glyph-name="three" unicode="3" horiz-adv-x="825" d="M406 942 Q518 942 601 874 Q684 806 684 720 Q684 634 608 566 Q532 498 369 459 L369 455 Q559 450 642 386 Q725 322 725 242 Q725 162 684 94 Q591 -36 385 -115 Q278 -155 152 -170 L96 -92 L96 -90 Q309 -56 438 25 Q561 107 561 217 Q561 299 480 349 Q399 399 238 408 L233 412 L248 477 Q380 506 450 570 Q520 634 520 694 Q520 754 487 799 Q452 843 395 852 Q292 826 176 698 L174 698 L72 803 L72 805 Q209 942 406 942 Z " />
<glyph glyph-name="four" unicode="4" horiz-adv-x="942" d="M547 475 L549 639 Q551 667 554 708 Q557 749 557 750 L555 752 L186 168 L188 166 L547 186 L547 475 Z M694 94 L694 -133 L553 -170 L547 -168 L547 94 L143 94 L80 154 L80 158 L582 950 L588 950 L694 870 L694 197 L881 209 L883 205 L842 94 L694 94 Z " />
<glyph glyph-name="five" unicode="5" horiz-adv-x="804" d="M391 584 Q520 584 606 516 Q653 478 676 426 Q705 376 705 292 Q705 127 545 -8 Q375 -140 127 -170 L72 -92 L72 -90 Q294 -55 414 45 Q541 142 541 279 Q541 500 274 500 Q225 500 191 493 Q157 486 150 485 L147 487 L147 930 L668 930 L618 797 L264 797 L236 561 L238 559 Q334 584 391 584 Z " />
<glyph glyph-name="six" unicode="6" horiz-adv-x="903" d="M270 412 Q270 253 328 164 Q388 76 472 76 Q556 76 612 134 Q668 192 668 306 Q668 420 602 483 Q534 545 442 545 Q374 545 276 520 Q273 499 270 469 L270 412 Z M512 643 Q566 643 631 623 Q749 572 801 468 Q827 416 827 340 Q827 264 799 205 Q755 80 608 12 Q538 -14 464 -14 Q313 -14 213 104 Q113 229 113 428 Q113 713 279 896 Q445 1078 707 1096 L707 1094 L682 1006 Q498 968 401 862 Q297 755 276 569 L279 569 Q379 643 512 643 Z " />
<glyph glyph-name="seven" unicode="7" horiz-adv-x="802" d="M41 930 L762 930 L748 817 Q594 654 487 422 Q373 194 313 -133 L156 -170 L150 -168 Q173 -26 225 123 Q382 534 625 797 L625 801 L100 801 L41 924 L41 930 Z " />
<glyph glyph-name="eight" unicode="8" horiz-adv-x="890" d="M582 709 Q608 768 608 840 Q608 912 558 959 Q508 1006 440 1006 Q372 1006 322 958 Q272 910 272 848 Q272 785 319 729 Q373 672 494 610 Q548 653 582 709 Z M256 274 Q256 180 318 128 Q380 76 468 76 Q558 76 606 121 Q653 168 653 220 Q653 272 639 299 Q617 361 512 426 Q484 446 381 498 Q256 419 256 274 Z M328 535 Q141 646 141 790 Q141 927 233 1008 Q272 1047 336 1073 Q403 1096 466 1096 Q589 1096 672 1020 Q752 956 752 832 Q752 671 553 578 L553 575 Q784 448 784 286 Q784 151 692 66 Q590 -14 448 -14 Q290 -14 205 61 Q160 94 135 143 Q113 194 113 266 Q113 338 158 404 Q203 470 328 532 L328 535 Z " />
<glyph glyph-name="nine" unicode="9" horiz-adv-x="897" d="M242 598 Q242 385 452 385 Q550 385 623 426 L623 492 Q623 656 569 758 Q515 852 434 852 Q354 852 298 784 Q242 716 242 598 Z M78 594 Q78 670 106 727 Q128 784 177 834 Q281 942 432 942 Q583 942 684 823 Q737 753 758 676 Q786 596 786 479 Q786 202 629 37 Q472 -123 160 -170 L104 -92 L104 -90 Q325 -55 461 66 Q602 186 623 377 L621 377 Q516 287 385 287 Q254 287 166 369 Q78 451 78 594 Z " />
<glyph glyph-name="colon" unicode="&#x3a;" horiz-adv-x="546" d="M397 102 Q398 -10 286 -10 Q174 -10 174 102 Q174 214 286 213 Q398 214 397 102 Z M397 666 Q398 554 286 555 Q174 554 174 666 Q174 778 286 778 Q398 778 397 666 Z " />
<glyph glyph-name="semicolon" unicode="&#x3b;" horiz-adv-x="567" d="M397 666 Q398 554 286 555 Q174 554 174 666 Q174 778 286 778 Q398 778 397 666 Z M408 24 Q408 -135 211 -281 L168 -238 Q265 -133 274 -39 L143 57 L244 223 Q320 196 364 145 Q408 94 408 24 Z " />
<glyph glyph-name="less" unicode="&#x3c;" horiz-adv-x="942" d="M819 -20 L125 381 L125 512 L819 913 L819 780 L233 446 L819 113 L819 -20 Z " />
<glyph glyph-name="equal" unicode="&#x3d;" horiz-adv-x="942" d="M127 508 L127 618 L817 618 L817 508 L127 508 Z M127 272 L127 383 L817 383 L817 272 L127 272 Z " />
<glyph glyph-name="greater" unicode="&#x3e;" horiz-adv-x="942" d="M123 113 L709 446 L123 780 L123 913 L817 512 L817 381 L123 -20 L123 113 Z " />
<glyph glyph-name="question" unicode="&#x3f;" horiz-adv-x="761" d="M291 90 Q290 195 394 195 Q498 194 498 90 Q498 -14 395 -14 Q338 -14 314 12 Q290 38 291 90 Z M61 1049 Q230 1180 392 1180 Q544 1180 618 1106 Q660 1077 682 1027 Q704 976 705 950 Q705 853 676 799 Q649 730 553 644 Q457 559 410 504 Q379 461 379 417 Q379 373 422 326 L354 305 Q252 380 252 459 Q252 509 287 561 Q325 610 337 622 Q349 634 360.5 646 Q372 658 390 675 Q408 692 440 722 Q472 752 487 774 Q545 832 557 887 Q565 911 565 944 Q565 977 555 1004 Q547 1031 530 1051 Q499 1075 458 1075 Q417 1075 401 1071 Q385 1067 332 1049 Q257 1009 164 932 L61 1049 Z " />
<glyph glyph-name="at" unicode="&#x40;" horiz-adv-x="1398" d="M561 318 Q560 214 624 215 Q658 215 705 270 Q750 318 777 402 Q816 523 821 618 Q764 643 711 643 L688 643 Q686 642 663 637.5 Q640 633 594 528 Q576 469 569 438 Q561 372 561 318 Z M474 137 Q434 184 434 271 Q434 358 462 441 Q490 524 530 590 Q572 656 630 702 Q688 750 740 750 Q838 750 954 709 Q939 655 916 522 Q893 389 893 303 Q893 217 913 184 Q936 154 978 154 Q1121 154 1176 352 Q1194 425 1194 516 Q1194 702 1084 812 Q974 922 791 922 Q678 922 578 873 Q376 773 285 541 Q242 424 242 310 Q242 102 356 8 Q401 -34 483 -61 Q572 -82 647 -82 Q807 -82 895 -39 L922 -82 Q801 -172 588 -172 Q374 -172 238 -51 Q104 71 104 291 Q104 556 297 778 Q391 884 523 948 Q654 1012 788 1012 Q922 1012 1004 979 Q1186 918 1266 737 Q1303 654 1303 540 Q1303 426 1274 328 Q1213 153 1120 105 Q1027 57 955 57 Q883 57 834 115 Q788 176 797 291 Q676 90 563 90 Q514 90 474 137 Z " />
<glyph glyph-name="A" unicode="A" horiz-adv-x="1134" d="M711 420 L539 913 L367 420 L711 420 Z M27 61 Q88 77 123 109 Q166 143 193 219 L500 1075 L635 1106 L1001 90 L1135 61 L1118 0 L729 0 L745 61 L827 90 L743 330 L340 330 L248 90 L344 61 L332 0 L10 0 L27 61 Z " />
<glyph glyph-name="B" unicode="B" horiz-adv-x="1050" d="M469 604 Q605 604 665 652 Q725 700 725 801 Q725 989 459 989 L377 989 L377 604 L469 604 Z M377 90 L506 90 Q654 90 718 136 Q782 182 782 292 Q782 402 705 462 Q628 522 475 522 L377 522 L377 90 Z M512 1079 Q623 1079 688 1057 Q760 1039 807 999 Q851 968 877 918 Q897 863 897 815 Q897 728 844 666 Q793 600 688 573 L688 567 Q822 552 889 479 Q958 413 958 309 Q958 175 846 82 Q793 44 719 20 Q637 0 555 0 L98 0 L115 61 Q174 72 194 98 Q214 124 213 178 L213 989 L68 1020 L80 1079 L512 1079 Z " />
<glyph glyph-name="C" unicode="C" horiz-adv-x="1050" d="M652 993 Q479 993 381 881 Q281 753 281 541 Q281 328 381 197 Q486 80 643 80 Q784 80 854 139 L911 272 L983 272 L963 70 Q810 -23 602 -23 Q490 -22 396 18 Q302 58 238 127 Q96 269 96 514 Q96 751 255 923 Q415 1096 627 1096 Q839 1096 995 1030 L944 831 L877 831 L852 938 Q743 993 652 993 Z " />
<glyph glyph-name="D" unicode="D" horiz-adv-x="1167" d="M444 90 Q661 90 774 185 Q887 280 887 520 Q886 760 774 875 Q662 989 434 989 L377 989 L377 90 L444 90 Z M213 176 L213 989 L68 1020 L80 1079 L489 1079 Q776 1078 924 946 Q1072 814 1071 567 Q1071 439 1032 330 Q896 0 506 0 L98 0 L115 61 Q174 73 194 97 Q214 121 213 176 Z " />
<glyph glyph-name="E" unicode="E" horiz-adv-x="942" d="M213 180 L213 989 L68 1020 L80 1079 L854 1079 L797 854 L733 854 L715 969 L377 989 L377 612 L725 612 L702 522 L377 522 L377 90 L739 117 L805 242 L870 242 L831 0 L98 0 L115 61 Q174 72 194 98 Q214 124 213 180 Z " />
<glyph glyph-name="F" unicode="F" horiz-adv-x="876" d="M213 180 L213 989 L68 1020 L80 1079 L834 1079 L776 854 L713 854 L694 969 L377 989 L377 612 L725 612 L702 522 L377 522 L377 90 L561 61 L551 0 L98 0 L115 61 Q174 72 194 98 Q214 124 213 180 Z " />
<glyph glyph-name="G" unicode="G" horiz-adv-x="1103" d="M256 924 Q415 1096 627 1096 Q839 1096 995 1030 L944 831 L877 831 L848 940 Q814 961 758 979 Q692 993 626 993 Q481 993 381 881 Q281 753 281 541 Q281 328 381 197 Q486 80 643 80 Q755 80 838 127 L838 424 L633 449 L643 514 L1001 514 L1001 76 Q823 -23 600 -23 Q377 -23 238 127 Q96 269 96 510 Q96 751 256 924 Z " />
<glyph glyph-name="H" unicode="H" horiz-adv-x="1316" d="M213 178 L213 989 L68 1020 L80 1079 L485 1079 L473 1020 Q414 1005 397 979 Q377 956 377 901 L377 612 L942 612 L942 989 L799 1020 L809 1079 L1214 1079 L1202 1020 Q1142 1004 1124 980 Q1106 956 1106 901 L1106 90 L1249 61 L1233 0 L829 0 L846 61 Q905 73 924 98 Q942 125 942 178 L942 522 L377 522 L377 90 L520 61 L506 0 L98 0 L115 61 Q174 72 194 98 Q214 124 213 178 Z " />
<glyph glyph-name="I" unicode="I" horiz-adv-x="587" d="M213 178 L213 989 L68 1020 L80 1079 L485 1079 L473 1020 Q414 1005 397 979 Q377 956 377 901 L377 90 L520 61 L506 0 L98 0 L115 61 Q174 72 194 98 Q214 124 213 178 Z " />
<glyph glyph-name="J" unicode="J" horiz-adv-x="487" d="M174 43 L174 989 L31 1020 L41 1079 L451 1079 L434 1020 Q378 1005 358 981 Q338 957 338 903 L338 0 Q338 -206 268 -305 Q230 -358 170 -396 Q110 -434 14 -471 L-25 -403 Q109 -315 164 -201 Q174 -126 174 43 Z " />
<glyph glyph-name="K" unicode="K" horiz-adv-x="1105" d="M213 178 L213 989 L68 1020 L80 1079 L485 1079 L473 1020 Q414 1005 397 979 Q377 956 377 901 L377 90 L520 61 L506 0 L98 0 L115 61 Q174 72 194 98 Q214 124 213 178 Z M1071 4 Q979 -28 903 -11 Q826 6 778 74 Q744 116 707 170 L463 526 L815 989 L690 1020 L702 1079 L1081 1079 L1069 1020 Q1033 1017 994 1009 Q955 1001 915 960 Q874 919 854 889 L618 580 L877 205 Q918 142 971 102 Q1026 75 1085 70 L1071 4 Z " />
<glyph glyph-name="L" unicode="L" horiz-adv-x="897" d="M213 180 L213 989 L68 1020 L80 1079 L489 1079 L473 1020 Q414 1005 397 979 Q377 956 377 901 L377 90 L733 113 L799 268 L870 268 L831 0 L98 0 L115 61 Q174 72 194 98 Q214 124 213 180 Z " />
<glyph glyph-name="M" unicode="M" horiz-adv-x="1513" d="M1108 846 L1106 846 Q1104 839 1095.5 817.5 Q1087 796 1083 784 Q1079 772 1069.5 749 Q1060 726 1055 713 L764 35 L678 35 L385 721 Q377 739 366 764.5 Q355 790 348 806 Q341 822 334 846 L332 846 Q332 815 329 777 Q326 739 324 694 L274 90 L420 61 L408 0 L61 0 L78 61 Q137 75 150 102 Q169 127 176 209 L256 989 L129 1020 L141 1079 L401 1079 L752 238 L1116 1079 L1370 1079 L1356 1020 Q1288 1011 1270 983 Q1254 951 1260 883 L1327 90 L1473 61 L1458 0 L1051 0 L1067 61 Q1128 74 1148 98 Q1168 122 1165 178 L1120 705 Q1117 753 1112 788 Q1108 822 1108 846 Z " />
<glyph glyph-name="N" unicode="N" horiz-adv-x="1239" d="M213 178 L213 989 L68 1020 L80 1079 L309 1079 L881 395 Q927 341 932 334 Q937 327 961 297 L963 299 Q961 322 961 365 L961 989 L856 1020 L866 1079 L1182 1079 L1165 1020 Q1106 1005 1086 981 Q1066 957 1067 903 L1067 0 L985 0 L389 721 Q328 794 317 811 L315 809 L319 754 L319 90 L453 61 L442 0 L98 0 L115 61 Q174 72 194 98 Q214 124 213 178 Z " />
<glyph glyph-name="O" unicode="O" horiz-adv-x="1226" d="M1098 786 Q1130 680 1130 560 Q1130 440 1091 334 Q1052 228 984 150 Q916 72 818 24 Q721 -24 609 -23 Q496 -23 402 13 Q212 85 135 281 Q96 372 96 498 Q96 624 138 732 Q180 842 254 924 Q328 1006 426 1049 Q522 1096 640 1096 Q758 1096 848 1058 Q938 1020 998 954 Q1058 888 1098 786 Z M281 535 Q281 328 369 201 Q461 80 631 80 Q775 80 861 188 Q946 296 946 518 Q946 740 858 868 Q768 993 598 993 Q530 992 474 968 Q282 884 281 535 Z " />
<glyph glyph-name="P" unicode="P" horiz-adv-x="956" d="M377 494 L420 494 Q585 494 659 565 Q739 633 739 755 Q739 877 666 938 Q593 999 459 999 L377 999 L377 494 Z M213 176 L213 989 L68 1020 L80 1079 L506 1079 Q703 1079 807 997 Q915 917 915 780 Q915 687 883 623 Q851 559 786 504 Q658 414 465 414 L377 414 L377 90 L541 61 L530 0 L98 0 L115 61 Q174 73 194 97 Q214 121 213 176 Z " />
<glyph glyph-name="Q" unicode="Q" horiz-adv-x="1226" d="M610 995 Q282 995 281 535 Q281 328 369 201 Q461 80 631 80 Q775 80 861 188 Q946 296 946 522 Q946 749 856 868 Q766 995 610 995 Z M139 281 Q96 374 96 498 Q96 622 138 732 Q180 842 254 924 Q328 1006 426 1049 Q523 1096 640 1096 Q976 1096 1098 786 Q1130 680 1130 573 Q1130 378 1036 217 Q929 58 774 2 Q852 -60 905 -94 Q990 -156 1096 -188 Q1157 -197 1180 -197 Q1284 -197 1362 -168 L1384 -227 Q1264 -307 1133 -307 Q1002 -307 907 -250 Q792 -183 627 -23 Q518 -22 420 14 Q223 87 139 281 Z " />
<glyph glyph-name="R" unicode="R" horiz-adv-x="1116" d="M512 535 Q748 535 748 766 Q748 997 444 997 L377 997 L377 535 L512 535 Z M213 176 L213 989 L68 1020 L80 1079 L512 1079 Q718 1079 821 997 Q924 915 924 776 Q924 692 870 610 Q816 534 715 494 L903 207 Q952 133 987 98 Q1031 74 1081 68 L1067 2 Q939 -41 858 20 Q807 55 743 160 L557 455 L377 455 L377 90 L520 61 L510 0 L98 0 L115 61 Q174 73 194 97 Q214 121 213 176 Z " />
<glyph glyph-name="S" unicode="S" horiz-adv-x="903" d="M627 123 Q682 166 682 230 Q682 294 638 338 Q594 382 548 411 Q504 440 422 484 Q340 528 286 567 Q154 663 154 795 Q154 909 250 999 Q361 1096 507 1096 Q587 1096 655 1073 Q728 1054 786 1020 L737 840 L674 840 L655 952 Q591 995 493 995 Q395 995 340 952 Q285 909 285 852 Q286 795 328 758 Q370 721 398 703 Q426 684 521 630 Q706 524 754 455 Q811 392 811 303 Q811 214 782 160 Q758 104 706 60 Q654 16 596 0 Q534 -23 449 -23 Q364 -23 266 8 Q152 50 92 86 L150 297 L225 297 L240 168 Q343 78 490 78 Q576 78 627 123 Z " />
<glyph glyph-name="T" unicode="T" horiz-adv-x="1003" d="M420 178 L420 999 L158 969 L137 834 L70 834 L20 1079 L983 1079 L934 834 L866 834 L846 969 L584 999 L584 90 L727 61 L717 0 L305 0 L322 61 Q379 73 401 98 Q420 126 420 178 Z " />
<glyph glyph-name="U" unicode="U" horiz-adv-x="1204" d="M1049 446 Q1049 -23 608 -23 Q388 -23 295 86 Q197 190 197 432 L197 989 L51 1020 L61 1079 L473 1079 L457 1020 Q400 1005 380 981 Q360 957 360 903 L360 418 Q360 246 434 172 Q506 94 653 94 Q940 94 940 436 L940 989 L809 1020 L819 1079 L1161 1079 L1147 1020 Q1086 1004 1069 979 Q1049 956 1049 901 L1049 446 Z " />
<glyph glyph-name="V" unicode="V" horiz-adv-x="1085" d="M414 1079 L401 1020 L307 989 L547 324 Q568 268 574 246 Q580 225 592 193 L594 193 Q604 232 608 243 Q612 254 615.5 265.5 Q619 277 625 293.5 Q631 310 635 322 L870 989 L758 1020 L768 1079 L1085 1079 L1073 1020 Q1013 1006 989 978 Q965 950 928 852 L621 0 L494 0 L127 989 L10 1020 L23 1079 L414 1079 Z " />
<glyph glyph-name="W" unicode="W" horiz-adv-x="1533" d="M408 1079 L395 1020 L299 989 L492 324 Q507 266 513 246 Q519 226 522 195 L524 195 Q533 243 549 299 L760 1036 L877 1036 L1085 342 Q1106 269 1114 243 Q1122 217 1126 195 L1128 195 Q1131 212 1141 246 Q1151 280 1165 342 L1331 989 L1229 1020 L1241 1079 L1534 1079 L1522 1020 Q1470 1007 1446 983 Q1423 951 1395 852 L1167 0 L1032 0 L825 678 Q799 767 791 831 L788 831 Q786 797 771.5 746 Q757 695 754 680 L561 0 L418 0 L123 989 L10 1020 L23 1079 L408 1079 Z " />
<glyph glyph-name="X" unicode="X" horiz-adv-x="1132" d="M35 61 Q70 68 90 78 Q143 90 221 203 L465 555 L168 989 L43 1020 L55 1079 L504 1079 L487 1020 L367 989 L604 635 L856 989 L733 1020 L745 1079 L1083 1079 L1071 1020 Q1025 1013 979 987 Q944 963 911 915 L664 567 L987 90 L1112 61 L1100 0 L655 0 L666 61 L795 92 L524 483 L252 88 L401 61 L393 0 L20 0 L35 61 Z " />
<glyph glyph-name="Y" unicode="Y" horiz-adv-x="997" d="M434 178 L434 440 L117 989 L10 1020 L23 1079 L383 1079 L371 1020 L299 989 L551 549 L793 989 L674 1020 L686 1079 L997 1079 L983 1020 Q934 1007 905 983 Q855 924 831 877 L598 449 L598 90 L741 61 L731 0 L322 0 L338 61 Q397 73 416 98 Q434 125 434 178 Z " />
<glyph glyph-name="Z" unicode="Z" horiz-adv-x="968" d="M61 66 L680 989 L231 969 L201 860 L147 860 L104 1079 L848 1079 L879 1012 L266 90 L766 119 L829 242 L907 242 L868 0 L82 0 L61 66 Z " />
<glyph glyph-name="bracketleft" unicode="&#x5b;" horiz-adv-x="452" d="M250 1149 Q225 980 225 461 Q225 -58 250 -227 Q321 -266 422 -283 L422 -356 Q326 -347 254 -324 Q183 -307 121 -270 Q80 -60 80 461 L82 729 Q95 1059 121 1192 Q258 1262 422 1278 L422 1200 Q379 1197 330 1180 Q289 1171 250 1149 Z " />
<glyph glyph-name="backslash" unicode="&#x5c;" horiz-adv-x="595" d="M596 -141 L489 -180 L0 1204 L109 1247 L596 -141 Z " />
<glyph glyph-name="bracketright" unicode="&#x5d;" horiz-adv-x="452" d="M344 1081 Q373 866 373 519 Q373 172 358 -20 Q343 -212 332 -270 Q269 -307 197 -324 Q128 -346 31 -356 L31 -283 Q132 -266 203 -227 Q227 -68 227 462 Q227 992 203 1149 Q164 1171 123 1180 Q74 1197 31 1200 L31 1278 Q196 1261 332 1192 Q338 1146 344 1081 Z " />
<glyph glyph-name="asciicircum" unicode="&#x5e;" horiz-adv-x="1099" d="M119 387 L504 1079 L600 1079 L981 387 L850 387 L547 973 L252 387 L119 387 Z " />
<glyph glyph-name="underscore" unicode="&#x5f;" horiz-adv-x="1024" d="M0 -72 L1024 -72 L1024 -174 L0 -174 L0 -72 Z " />
<glyph glyph-name="grave" unicode="&#x60;" horiz-adv-x="716" d="M221 1110 Q197 1146 197 1178 Q197 1210 221 1233 Q243 1261 281 1270 L500 950 L459 911 L324 1014 Q245 1074 221 1110 Z " />
<glyph glyph-name="a" unicode="a" horiz-adv-x="804" d="M215 229 Q215 90 342 90 Q394 90 440 112 Q485 134 510 166 Q510 200 508 223 L508 383 L426 381 Q413 379 349.5 371.5 Q286 364 238 342 Q215 291 215 229 Z M408 805 Q513 805 588 733 Q662 659 662 530 L662 106 L774 76 L774 49 Q752 20 718 2 Q684 -16 651 -16 Q546 -16 518 96 Q418 -16 285 -16 Q136 -16 80 111 Q61 157 61 201 Q61 303 142 368 Q223 433 508 473 L508 504 Q508 599 479 655 Q448 710 395 731 Q305 705 172 588 L88 705 Q233 805 408 805 Z " />
<glyph glyph-name="b" unicode="b" horiz-adv-x="929" d="M858 420 Q858 322 822 237 Q752 70 600 10 Q524 -20 462 -20 Q272 -20 137 59 L137 1038 L0 1067 L14 1128 L291 1161 L291 741 Q291 703 283 666 Q405 809 546 809 Q687 809 773 708 Q858 606 858 420 Z M291 141 Q362 70 488 70 Q548 70 598 92 Q694 196 694 406 Q694 535 635 627 Q612 661 573 688 Q536 709 494 709 Q452 709 396 675 Q338 641 291 580 L291 141 Z " />
<glyph glyph-name="c" unicode="c" horiz-adv-x="688" d="M422 -20 Q256 -20 160 70 Q66 161 66 355 Q66 549 174 676 Q229 741 295 770 Q364 805 470 805 Q576 805 662 756 L623 580 L553 580 L530 670 Q490 702 434 702 Q340 702 283 678 Q257 628 246 561 Q229 486 229 389 Q229 230 301 156 Q373 82 500 82 Q556 82 623 98 L641 31 Q537 -20 422 -20 Z " />
<glyph glyph-name="d" unicode="d" horiz-adv-x="956" d="M645 768 Q641 780 641 827 L641 1038 L504 1067 L518 1128 L795 1161 L795 86 L926 61 L913 0 L682 -25 L645 115 Q544 -23 400 -23 Q256 -23 164 74 Q72 178 72 343 Q72 528 172 659 Q233 730 307 766 Q386 809 498 809 Q533 809 578 799 Q611 788 645 768 Z M451 719 Q388 719 330 694 Q236 600 236 381 Q236 224 299 152 Q362 80 446 80 Q553 80 641 207 L641 629 Q551 719 451 719 Z " />
<glyph glyph-name="e" unicode="e" horiz-adv-x="774" d="M561 557 Q561 634 524 680 Q485 725 424 725 Q363 725 299 694 Q276 653 254 594 Q231 512 229 455 L553 477 Q561 525 561 557 Z M66 348 Q66 452 94 532 Q118 615 172 678 Q220 738 293 774 Q366 810 449 809 Q574 809 643 743 Q715 680 715 555 Q715 471 680 389 L229 389 Q232 228 303 154 Q374 80 514 80 Q582 80 649 100 L668 37 Q569 -20 418 -20 Q266 -20 164 74 Q66 172 66 348 Z " />
<glyph glyph-name="f" unicode="f" horiz-adv-x="573" d="M348 827 L348 784 L555 784 L535 686 L348 686 L348 90 L492 61 L479 0 L90 0 L106 61 Q150 70 172 89 Q194 108 195 150 L195 686 L25 727 L41 784 L195 784 Q198 894 224 965 Q277 1107 451 1143 Q534 1161 651 1161 L668 1161 L623 1012 Q533 1034 469 1034 Q404 1034 373 1026 Q348 953 348 827 Z " />
<glyph glyph-name="g" unicode="g" horiz-adv-x="833" d="M451 133 Q608 133 690 74 Q772 15 772 -68 Q772 -117 745 -176 Q712 -233 664 -266 Q620 -305 537 -332 Q454 -354 330 -354 Q206 -354 118 -302 Q31 -250 31 -186 Q31 -142 74 -102 Q118 -64 182 -55 L182 -76 Q182 -160 233 -217 Q290 -268 393 -268 Q496 -268 564 -226 Q632 -184 631 -126 Q631 -68 578 -34 Q525 0 412 0 L299 0 Q202 0 160 33 Q111 63 96 121 L225 305 Q168 331 128 389 Q88 446 88 508 Q88 570 112 628 Q136 686 178 721 Q217 760 281 784 Q345 808 412 809 Q531 809 610 754 Q634 810 664 840 Q694 870 722 870 Q750 870 780 844 Q809 812 823 754 L653 719 Q717 638 717 562 Q717 424 627 345 Q537 266 405 266 Q344 266 285 283 L240 133 L451 133 Z M400 733 Q242 734 242 540 Q242 442 288 392 Q334 342 409 342 Q483 342 523 380 Q563 418 563 522 Q563 626 518 680 Q472 733 400 733 Z " />
<glyph glyph-name="h" unicode="h" horiz-adv-x="987" d="M168 150 L168 1038 L31 1067 L43 1128 L322 1161 L322 786 Q322 728 311 664 Q416 746 480 774 Q544 802 600 803 Q701 804 760 740 Q819 676 819 555 L819 90 L950 61 L938 0 L563 0 L580 61 Q622 69 644 89 Q666 109 666 150 L666 494 Q666 568 639 618 Q609 667 563 686 Q456 675 322 598 L322 90 L453 61 L440 0 L66 0 L82 61 Q128 70 148 89 Q168 108 168 150 Z " />
<glyph glyph-name="i" unicode="i" horiz-adv-x="514" d="M188 150 L188 678 L51 709 L66 768 L342 803 L342 90 L473 61 L461 0 L86 0 L100 61 Q144 70 166 88 Q188 106 188 150 Z M162 1059 Q162 1153 257 1153 Q352 1153 352 1058 Q352 963 260 963 Q206 964 184 988 Q162 1012 162 1059 Z " />
<glyph glyph-name="j" unicode="j" horiz-adv-x="471" d="M158 1059 Q158 1153 253 1153 Q348 1153 348 1058 Q348 963 256 963 Q202 964 180 988 Q158 1012 158 1059 Z M182 -27 L182 678 L45 709 L59 768 L336 803 L336 47 Q336 -102 288 -185 Q240 -267 80 -354 L37 -299 Q79 -259 119 -217 Q151 -179 176 -139 Q177 -131 178 -115.5 Q179 -100 180 -94 L180 -61 Q182 -49 182 -27 Z " />
<glyph glyph-name="k" unicode="k" horiz-adv-x="937" d="M168 150 L168 1038 L33 1067 L45 1128 L322 1161 L322 90 L455 61 L442 0 L66 0 L82 61 Q128 70 148 89 Q168 108 168 150 Z M918 20 Q862 -10 818 -10 Q774 -10 750 -6 Q728 -2 698 20 Q668 40 652 56 Q636 72 594 125 L365 418 L614 711 L512 725 L524 784 L893 784 L881 725 Q794 720 752 697 Q708 674 666 632 Q624 590 618 582 L512 457 L717 207 Q768 146 782 132 Q796 118 818 104 Q855 79 928 72 L918 20 Z " />
<glyph glyph-name="l" unicode="l" horiz-adv-x="483" d="M166 150 L166 1038 L31 1067 L43 1128 L319 1161 L319 90 L453 61 L440 0 L63 0 L80 61 Q122 69 144 89 Q166 109 166 150 Z " />
<glyph glyph-name="m" unicode="m" horiz-adv-x="1484" d="M188 150 L188 678 L51 709 L66 768 L295 803 L332 664 Q441 747 505 775 Q568 803 630 803 Q692 803 742 764 Q792 725 817 662 Q951 772 1010 788 Q1070 803 1098 803 Q1198 803 1258 739 Q1318 675 1317 555 L1317 90 L1448 61 L1436 0 L1061 0 L1077 61 Q1123 70 1143 88 Q1163 106 1163 150 L1163 494 Q1163 646 1065 686 Q975 681 829 598 L829 90 L961 61 L950 0 L573 0 L590 61 Q636 70 656 89 Q676 108 676 150 L676 494 Q676 578 654 620 Q632 662 575 686 Q486 681 342 598 L342 90 L473 61 L461 0 L86 0 L100 61 Q144 70 166 88 Q188 106 188 150 Z " />
<glyph glyph-name="n" unicode="n" horiz-adv-x="1007" d="M188 150 L188 678 L51 709 L66 768 L295 803 L332 664 Q441 747 505 775 Q569 803 621 803 Q720 803 780 739 Q840 675 840 555 L840 90 L971 61 L958 0 L584 0 L600 61 Q644 70 665 89 Q686 108 686 150 L686 494 Q686 643 584 686 Q476 675 342 598 L342 90 L473 61 L461 0 L86 0 L100 61 Q144 70 166 88 Q188 106 188 150 Z " />
<glyph glyph-name="o" unicode="o" horiz-adv-x="897" d="M430 719 Q236 719 236 399 Q236 234 303 152 Q370 70 465 70 Q514 70 547 86 Q620 109 648 241 Q662 303 662 385 Q662 547 592 635 Q553 681 516 696 Q477 719 430 719 Z M425 -20 Q254 -20 163 82 Q72 184 72 348 Q72 440 96 522 Q147 697 291 770 Q358 809 448 809 Q538 809 614 782 Q690 750 729 705 Q825 609 825 429 Q825 248 717 113 Q596 -20 425 -20 Z " />
<glyph glyph-name="p" unicode="p" horiz-adv-x="962" d="M168 -190 L168 682 L33 713 L45 772 L274 803 L315 680 Q391 756 450 782 Q509 808 574 809 Q709 809 799 713 Q891 608 891 436 Q891 247 774 115 Q657 -18 504 -18 Q385 -18 311 29 L319 -12 L322 -74 L322 -252 L453 -279 L442 -342 L66 -342 L82 -279 Q128 -270 148 -251 Q168 -232 168 -190 Z M322 168 Q400 72 521 72 Q583 72 633 90 Q727 198 727 406 Q727 545 668 627 Q643 667 606 688 Q576 709 531 709 Q486 709 438 687 Q390 665 322 598 L322 168 Z " />
<glyph glyph-name="q" unicode="q" horiz-adv-x="927" d="M645 115 Q544 -23 391 -23 Q255 -23 164 74 Q72 178 72 354 Q72 530 172 659 Q233 730 307 766 Q386 809 498 809 Q610 809 688 745 L729 809 L795 788 L795 -252 L887 -279 L877 -342 L451 -342 L463 -279 Q561 -268 606 -250 Q641 -232 641 -190 L641 0 Q641 87 645 115 Z M297 154 Q350 80 452 80 Q554 80 641 207 L641 629 Q566 719 451 719 Q388 719 330 694 Q236 600 236 381 Q236 240 297 154 Z " />
<glyph glyph-name="r" unicode="r" horiz-adv-x="653" d="M184 150 L184 678 L47 709 L61 768 L291 803 L328 664 Q388 730 451 770 Q520 803 552 803 Q620 803 637 676 L338 608 L338 90 L469 61 L457 0 L82 0 L96 61 Q140 70 162 88 Q184 106 184 150 Z " />
<glyph glyph-name="s" unicode="s" horiz-adv-x="700" d="M375 70 Q432 70 467 96 Q502 122 502 159 Q502 196 492 213 Q483 249 410 292 Q337 336 268 376 Q121 460 121 582 Q121 674 199 737 Q233 768 287 791 Q342 809 430 809 Q518 809 633 758 L594 594 L530 594 L510 680 Q451 719 395 719 Q316 719 260 698 Q240 668 240 632 Q240 596 266 572 Q292 546 334 521 Q378 496 420 471 Q528 413 586 348 Q631 284 631 217 Q630 108 554 44 Q478 -20 362 -20 Q210 -20 57 63 L102 240 L176 240 L188 139 Q266 70 375 70 Z " />
<glyph glyph-name="t" unicode="t" horiz-adv-x="620" d="M334 248 Q334 152 356 124 Q378 96 430 96 Q483 96 555 127 L580 55 Q479 -14 356 -14 Q316 -14 287 -4 Q259 1 233 25 Q180 74 180 190 L180 686 L10 727 L27 784 L180 784 L180 985 L334 1012 L334 784 L559 784 L532 686 L334 686 L334 248 Z " />
<glyph glyph-name="u" unicode="u" horiz-adv-x="960" d="M438 86 Q556 86 635 199 L635 694 L504 725 L516 784 L788 784 L788 86 L920 61 L909 0 L676 -16 L639 119 Q580 44 520 14 Q460 -16 357 -16 Q254 -16 200 49 Q146 114 145 262 L145 694 L31 725 L41 784 L299 784 L299 319 Q299 193 332 135 Q369 86 438 86 Z " />
<glyph glyph-name="v" unicode="v" horiz-adv-x="849" d="M92 711 L10 725 L23 784 L381 784 L369 725 L266 711 L477 166 L670 711 L555 725 L565 784 L840 784 L829 725 Q763 719 735 631 L506 0 L371 0 L92 711 Z " />
<glyph glyph-name="w" unicode="w" horiz-adv-x="1249" d="M383 784 L371 725 L266 711 L432 166 L614 766 L721 766 L918 166 L1061 711 L942 725 L954 784 L1239 784 L1227 725 Q1182 719 1167 696 Q1139 647 1126 594 L965 0 L819 0 L641 547 L471 0 L326 0 L98 711 L10 725 L23 784 L383 784 Z " />
<glyph glyph-name="x" unicode="x" horiz-adv-x="901" d="M12 59 Q49 65 86 75 Q123 85 159 126 Q195 167 205 182 L360 399 L129 707 L43 725 L55 784 L416 784 L406 725 L324 707 L487 485 L657 711 L578 725 L590 784 L891 784 L879 725 Q777 718 729 670 Q710 653 686 623 L541 430 L795 80 L887 59 L874 0 L504 0 L516 59 L608 80 L420 340 L229 80 L336 59 L326 0 L0 0 L12 59 Z " />
<glyph glyph-name="y" unicode="y" horiz-adv-x="860" d="M47 -238 Q157 -205 250 -139 Q340 -68 379 14 L92 711 L10 725 L23 784 L381 784 L369 725 L266 711 L471 180 L664 711 L555 725 L565 784 L850 784 L840 725 Q798 720 774 696 Q750 672 729 614 L522 78 Q442 -123 360 -209 Q281 -311 164 -354 L47 -238 Z " />
<glyph glyph-name="z" unicode="z" horiz-adv-x="772" d="M41 57 L510 702 L203 690 L168 584 L98 584 L74 784 L698 784 L707 727 L236 80 L582 98 L645 211 L731 211 L694 0 L61 0 L41 57 Z " />
<glyph glyph-name="braceleft" unicode="&#x7b;" horiz-adv-x="454" d="M225 600 Q225 643 209 684 Q199 720 159 795 Q118 870 104 908 Q90 946 90 989 Q90 1084 184 1165 Q236 1210 291 1237 Q351 1271 426 1280 L391 1153 Q335 1138 280 1094 Q225 1050 199 1006 Q209 965 259 851 Q309 737 321 699 Q334 661 334 618 Q334 501 174 457 Q334 412 334 295 Q334 253 320 215 Q306 177 260 70 Q213 -37 199 -90 Q224 -136 280 -180 Q336 -224 391 -240 L426 -367 Q351 -358 291 -324 Q164 -262 115 -166 Q90 -118 90 -76 Q90 -34 105 7 Q120 48 160 124 Q200 200 209 229 Q225 270 225 313 Q225 395 80 422 L80 492 Q225 519 225 600 Z " />
<glyph glyph-name="bar" unicode="&#x7c;" horiz-adv-x="819" d="M354 1161 L465 1161 L465 -100 L354 -100 L354 1161 Z " />
<glyph glyph-name="braceright" unicode="&#x7d;" horiz-adv-x="454" d="M229 313 Q229 249 282 150 Q335 51 350 7 Q365 -38 365 -78 Q365 -170 270 -252 Q217 -298 164 -324 Q107 -358 31 -367 L63 -240 Q118 -224 174 -180 Q230 -136 256 -90 Q249 -46 185 85.5 Q121 217 121 295 Q121 412 281 457 Q121 501 121 618 Q121 663 135 705 Q149 747 200 858 Q250 970 256 1006 Q230 1050 175 1094 Q120 1138 63 1153 L31 1280 Q107 1271 164 1237 Q217 1212 267 1168 Q365 1083 365 995 Q364 950 350 908 Q336 866 282 766 Q228 667 229 600 Q229 519 375 492 L375 422 Q229 395 229 313 Z " />
<glyph glyph-name="asciitilde" unicode="&#x7e;" horiz-adv-x="999" d="M266 557 Q315 606 359 606 Q403 606 508 540 Q614 474 641 473 Q669 474 681 478 Q704 487 740 520.5 Q776 554 811 606 L850 565 Q784 446 735 391 Q686 336 641 336 Q621 336 586 350 Q525 380 500 397 Q460 418 434 434 Q408 450 393 455 L369 467 L352 469 Q320 469 285 446 Q257 423 241 401 Q225 379 188 336 L150 379 Q215 496 266 557 Z " />
</font>
</svg>
